<svg xmlns="http://www.w3.org/2000/svg" viewBox="0 0 512 512" width="512" height="512">
  <!-- Background: Premium slate rounded rectangle -->
  <rect width="512" height="512" rx="112" fill="#1e293b" />
  
  <!-- Storefront Graphic -->
  <g transform="translate(64, 64) scale(1.6)" stroke-linecap="round" stroke-linejoin="round">
    <!-- Base / Walls of the shop -->
    <path d="M24 72v48a12 12 0 0 0 12 12h168a12 12 0 0 0 12-12V72" fill="none" stroke="#35bbf0" stroke-width="12" />
    
    <!-- Door -->
    <path d="M96 132V96a12 12 0 0 1 12-12h24a12 12 0 0 1 12 12v36" fill="none" stroke="#ff9f00" stroke-width="10" />
    
    <!-- Awning (Roof) lines -->
    <path d="M12 42l26.46-26.46A12 12 0 0 1 47 12h146a12 12 0 0 1 8.49 3.54L228 42" fill="none" stroke="#35bbf0" stroke-width="12" stroke-miterlimit="10" />
    
    <!-- Awning scallops / front border -->
    <path d="M12 42v18a12 12 0 0 0 12 12h0a16.2 16.2 0 0 0 9.54-3.78 4.2 4.2 0 0 1 4.92 0A16.2 16.2 0 0 0 48 72a16.2 16.2 0 0 0 9.54-3.78 4.2 4.2 0 0 1 4.92 0A16.2 16.2 0 0 0 72 72a16.2 16.2 0 0 0 9.54-3.78 4.2 4.2 0 0 1 4.92 0A16.2 16.2 0 0 0 96 72a16.2 16.2 0 0 0 9.54-3.78 4.2 4.2 0 0 1 4.92 0A16.2 16.2 0 0 0 120 72a16.2 16.2 0 0 0 9.54-3.78 4.2 4.2 0 0 1 4.92 0A16.2 16.2 0 0 0 144 72a16.2 16.2 0 0 0 9.54-3.78 4.2 4.2 0 0 1 4.92 0A16.2 16.2 0 0 0 168 72a16.2 16.2 0 0 0 9.54-3.78 4.2 4.2 0 0 1 4.92 0A16.2 16.2 0 0 0 192 72h0a12 12 0 0 0 12-12V42" fill="#35bbf0" opacity="0.15" />
    <path d="M12 42v18a12 12 0 0 0 12 12h0a16.2 16.2 0 0 0 9.54-3.78 4.2 4.2 0 0 1 4.92 0A16.2 16.2 0 0 0 48 72a16.2 16.2 0 0 0 9.54-3.78 4.2 4.2 0 0 1 4.92 0A16.2 16.2 0 0 0 72 72a16.2 16.2 0 0 0 9.54-3.78 4.2 4.2 0 0 1 4.92 0A16.2 16.2 0 0 0 96 72a16.2 16.2 0 0 0 9.54-3.78 4.2 4.2 0 0 1 4.92 0A16.2 16.2 0 0 0 120 72a16.2 16.2 0 0 0 9.54-3.78 4.2 4.2 0 0 1 4.92 0A16.2 16.2 0 0 0 144 72a16.2 16.2 0 0 0 9.54-3.78 4.2 4.2 0 0 1 4.92 0A16.2 16.2 0 0 0 168 72a16.2 16.2 0 0 0 9.54-3.78 4.2 4.2 0 0 1 4.92 0A16.2 16.2 0 0 0 192 72h0a12 12 0 0 0 12-12V42" fill="none" stroke="#35bbf0" stroke-width="12" />
    
    <!-- Roof-Awning divider line -->
    <path d="M12 42h216" fill="none" stroke="#35bbf0" stroke-width="12" stroke-linecap="square" />
  </g>
</svg>
